<?xml version="1.0" encoding="UTF-8" standalone="no"?>
<!-- Created with Inkscape (http://www.inkscape.org/) -->

<svg
   width="85.432426mm"
   height="44.437908mm"
   viewBox="0 0 85.432426 44.437908"
   version="1.1"
   id="svg2886"
   inkscape:version="1.2.1 (9c6d41e410, 2022-07-14, custom)"
   sodipodi:docname="icon.svg"
   xmlns:inkscape="http://www.inkscape.org/namespaces/inkscape"
   xmlns:sodipodi="http://sodipodi.sourceforge.net/DTD/sodipodi-0.dtd"
   xmlns="http://www.w3.org/2000/svg"
   xmlns:svg="http://www.w3.org/2000/svg">
  <sodipodi:namedview
     id="namedview2888"
     pagecolor="#ffffff"
     bordercolor="#666666"
     borderopacity="1.0"
     inkscape:showpageshadow="2"
     inkscape:pageopacity="0.0"
     inkscape:pagecheckerboard="0"
     inkscape:deskcolor="#d1d1d1"
     inkscape:document-units="mm"
     showgrid="false"
     inkscape:zoom="0.67793911"
     inkscape:cx="-227.89657"
     inkscape:cy="207.24575"
     inkscape:window-width="1920"
     inkscape:window-height="1006"
     inkscape:window-x="0"
     inkscape:window-y="0"
     inkscape:window-maximized="1"
     inkscape:current-layer="layer1" />
  <defs
     id="defs2883">
    <inkscape:path-effect
       effect="simplify"
       id="path-effect7597"
       is_visible="true"
       lpeversion="1"
       steps="1"
       threshold="0.6"
       smooth_angles="0"
       helper_size="0"
       simplify_individual_paths="false"
       simplify_just_coalesce="false"
       step="1" />
    <inkscape:path-effect
       effect="powerstroke"
       id="path-effect7599"
       is_visible="true"
       lpeversion="1"
       offset_points="0.15014014,2.1069509"
       not_jump="true"
       sort_points="true"
       interpolator_type="CentripetalCatmullRom"
       interpolator_beta="0.75"
       start_linecap_type="round"
       linejoin_type="spiro"
       miter_limit="4"
       scale_width="1"
       end_linecap_type="round" />
  </defs>
  <g
     inkscape:label="Layer 1"
     inkscape:groupmode="layer"
     id="layer1"
     transform="translate(-53.495472,-36.003349)">
    <path
       id="rect6971"
       style="fill:#000000;stroke-width:0.089858"
       d="m 114.57099,64.875919 c 0,8.623149 -6.67538,15.56534 -14.967108,15.56534 H 88.328312 V 58.623618 h 4.16047 c 0.14638,0.99341 0.8276,1.844027 1.76445,2.4407 1.0595,0.67476 2.47517,1.067626 4.03372,1.067626 h 4.581748 c 1.55855,0 2.97422,-0.392866 4.03371,-1.067626 0.93687,-0.596673 1.61824,-1.44729 1.76462,-2.4407 h 5.90396 z m 0,-7.054937 h -5.90396 c -0.14658,-0.993117 -0.82796,-1.843493 -1.76462,-2.440033 -1.05943,-0.674722 -2.47509,-1.068294 -4.03371,-1.068294 h -4.581748 c -1.55862,0 -2.97429,0.393572 -4.03372,1.068294 -0.93665,0.59654 -1.61787,1.446916 -1.76445,2.440033 h -4.16047 V 36.003349 h 11.27557 c 8.291728,0 14.967108,6.942188 14.967108,15.565338 z M 87.585492,80.441259 h -19.12293 c -8.29172,0 -14.96709,-6.942191 -14.96709,-15.56534 V 51.568687 c 0,-8.62315 6.67537,-15.565338 14.96709,-15.565338 h 19.12293 z" />
    <path
       style="color:#000000;fill:#eab811;fill-opacity:1;stroke-width:0.50142"
       d="m 108.20505,58.222287 c 0,1.882767 -2.37992,3.398494 -5.33615,3.398494 h -4.582028 c -2.95623,0 -5.33616,-1.515727 -5.33616,-3.398494 0,-1.882764 2.37993,-3.398491 5.33616,-3.398491 h 4.582028 c 2.95623,0 5.33615,1.515727 5.33615,3.398491 z"
       id="path7441" />
    <path
       d="m 111.93641,68.445354 c 0.8466,0.200472 2.2746,0.488501 3.79911,0.462379 1.02455,-0.01755 2.13524,-0.175521 3.21681,-0.614065 0.37885,-0.153614 0.74945,-0.339779 1.10785,-0.56236 0.45698,-0.283804 0.92962,-0.648846 1.38639,-1.122229 0.61504,-0.637405 1.15122,-1.418862 1.59576,-2.370261 0.37601,-0.804726 0.67096,-1.6971 0.90307,-2.680195 0.21074,-0.892604 0.36572,-1.842649 0.48594,-2.848978 0.2264,-1.895149 0.31402,-3.832803 0.44777,-5.842931 0.12818,-1.926483 0.28818,-3.69192 0.62369,-5.219127 0.16779,-0.763731 0.37017,-1.422675 0.61108,-1.984248 0.24811,-0.578339 0.52615,-1.027783 0.82617,-1.376716 0.31232,-0.363247 0.66207,-0.633748 1.06213,-0.832607 0.44345,-0.220422 0.9848,-0.37017 1.65029,-0.428602 0.77973,-0.06846 1.67288,-0.0062 2.65379,0.169967 1.3156,0.236315 2.65146,0.652933 3.79538,1.068427 a 2.1069509,2.1069509 90 0 0 1.43862,-3.960726 c -1.25968,-0.457539 -2.84502,-0.959923 -4.489,-1.255224 -1.22648,-0.220306 -2.51003,-0.330594 -3.76737,-0.220196 -1.0918,0.09586 -2.16161,0.357956 -3.15735,0.852904 -0.91566,0.455141 -1.71104,1.07876 -2.38169,1.858757 -0.62894,0.73148 -1.11879,1.565789 -1.50356,2.462691 -0.371,0.864824 -0.64514,1.789618 -0.85424,2.741382 -0.40932,1.863162 -0.58358,3.905299 -0.71254,5.843548 -0.14175,2.130224 -0.21834,3.873481 -0.42732,5.62285 -0.10729,0.89813 -0.23854,1.684226 -0.40294,2.380542 -0.18072,0.765447 -0.39049,1.374245 -0.61963,1.864651 -0.26632,0.569976 -0.54557,0.953567 -0.81047,1.228104 -0.19674,0.203902 -0.3926,0.353884 -0.57712,0.468479 -0.14619,0.09079 -0.3018,0.169567 -0.4681,0.236997 -0.47928,0.194335 -1.04947,0.29464 -1.7056,0.305883 -1.00176,0.01716 -2.0292,-0.177516 -2.75594,-0.349604 a 2.1069509,2.1069509 90 0 0 -0.97098,4.100508 z"
       id="path-1"
       style="fill:#000000;fill-rule:nonzero;stroke:none;stroke-width:0.315855px;stroke-linecap:butt;stroke-linejoin:miter;stroke-opacity:1"
       inkscape:original-d="m 112.4219,66.3951 c 1.81223,-0.692992 6.05951,0.621287 7.59732,-0.629846 4.31576,-3.511216 1.32055,-10.349647 2.27126,-15.030564 0.30222,-1.48802 0.74056,-2.905695 1.20575,-4.357037 0.6628,-2.067881 1.48526,-3.562627 3.78543,-4.094208 3.62186,-0.837031 6.12304,0 9.53929,0"
       inkscape:path-effect="#path-effect7597;#path-effect7599" />
  </g>
</svg>
