<?xml version="1.0" encoding="UTF-8" standalone="no"?>
<!-- Created with Inkscape (http://www.inkscape.org/) -->

<svg
   width="85.391556mm"
   height="44.437908mm"
   viewBox="0 0 85.391556 44.437908"
   version="1.1"
   id="svg322"
   inkscape:version="1.2.1 (9c6d41e410, 2022-07-14, custom)"
   sodipodi:docname="mauswebsite.svg"
   xmlns:inkscape="http://www.inkscape.org/namespaces/inkscape"
   xmlns:sodipodi="http://sodipodi.sourceforge.net/DTD/sodipodi-0.dtd"
   xmlns="http://www.w3.org/2000/svg"
   xmlns:svg="http://www.w3.org/2000/svg">
  <sodipodi:namedview
     id="namedview324"
     pagecolor="#ffffff"
     bordercolor="#666666"
     borderopacity="1.0"
     inkscape:showpageshadow="2"
     inkscape:pageopacity="0.0"
     inkscape:pagecheckerboard="0"
     inkscape:deskcolor="#d1d1d1"
     inkscape:document-units="mm"
     showgrid="false"
     inkscape:zoom="0.92301435"
     inkscape:cx="277.89384"
     inkscape:cy="154.38547"
     inkscape:window-width="1920"
     inkscape:window-height="1006"
     inkscape:window-x="0"
     inkscape:window-y="0"
     inkscape:window-maximized="1"
     inkscape:current-layer="g8218" />
  <defs
     id="defs319">
    <inkscape:path-effect
       effect="simplify"
       id="path-effect7597"
       is_visible="true"
       lpeversion="1"
       steps="1"
       threshold="0.6"
       smooth_angles="0"
       helper_size="0"
       simplify_individual_paths="false"
       simplify_just_coalesce="false"
       step="1" />
    <inkscape:path-effect
       effect="powerstroke"
       id="path-effect7599"
       is_visible="true"
       lpeversion="1"
       offset_points="0.15014014,6.6706208"
       not_jump="true"
       sort_points="true"
       interpolator_type="CentripetalCatmullRom"
       interpolator_beta="0.75"
       start_linecap_type="round"
       linejoin_type="spiro"
       miter_limit="4"
       scale_width="1"
       end_linecap_type="round" />
  </defs>
  <g
     inkscape:label="Layer 1"
     inkscape:groupmode="layer"
     id="layer1"
     transform="translate(-9.4964519,-28.987265)">
    <g
       id="g8218"
       transform="matrix(0,0.32210591,-0.30972597,0,164.07675,116.68248)">
      <path
         id="rect6971"
         style="fill:#ffffff;stroke-width:0.284491"
         d="m -182.61896,301.89517 c 26.77116,0 48.32367,21.55252 48.32367,48.3237 v 36.40501 h -67.73437 v -13.43277 c 3.08411,-0.4726 5.72491,-2.67202 7.57732,-5.69681 2.09484,-3.42074 3.31452,-7.99146 3.31452,-13.0235 v -14.79291 c 0,-5.03203 -1.21968,-9.60276 -3.31452,-13.0235 -1.85241,-3.02481 -4.49321,-5.22473 -7.57732,-5.69733 v -19.06189 z m -21.90254,0 v 19.06189 c -3.0832,0.47325 -5.72325,2.67318 -7.57525,5.69733 -2.09472,3.42054 -3.31659,7.99125 -3.31659,13.0235 v 14.79291 c 0,5.03225 1.22187,9.60296 3.31659,13.0235 1.852,3.02413 4.49205,5.22356 7.57525,5.69681 v 13.43277 h -67.73434 v -36.40501 c 0,-26.77118 21.5525,-48.3237 48.32366,-48.3237 z m 70.22621,87.12701 v 61.74145 c 0,26.77116 -21.55251,48.32367 -48.32367,48.32367 h -41.31322 c -26.77116,0 -48.32366,-21.55251 -48.32366,-48.32367 v -61.74145 z" />
      <path
         style="color:#000000;fill:#eab811;fill-opacity:1;stroke-width:1.5875"
         d="m -203.27562,322.44862 c 5.84518,0 10.55086,7.68397 10.55086,17.22862 v 14.79383 c 0,9.54466 -4.70568,17.22863 -10.55086,17.22863 -5.84517,0 -10.55085,-7.68397 -10.55085,-17.22863 v -14.79383 c 0,-9.54465 4.70568,-17.22862 10.55085,-17.22862 z"
         id="path7441" />
      <path
         d="m -171.5384,310.83249 c 0.80005,-2.54753 2.00424,-6.89192 2.20979,-11.58281 0.13841,-3.15844 -0.16182,-6.6287 -1.39893,-10.05224 -0.43316,-1.19872 -0.97486,-2.37386 -1.63771,-3.51309 -0.84576,-1.45359 -1.95019,-2.95442 -3.40241,-4.41027 -1.95318,-1.95807 -4.3697,-3.67031 -7.32468,-5.11584 -2.49969,-1.22281 -5.28995,-2.20958 -8.37956,-3.0196 -2.80647,-0.73579 -5.80905,-1.31281 -9.00453,-1.79584 -6.0368,-0.91253 -12.19973,-1.41673 -18.6775,-2.10065 -6.18419,-0.65291 -11.8962,-1.40478 -16.83833,-2.68886 -2.47456,-0.64295 -4.62046,-1.38587 -6.45468,-2.24366 -1.8907,-0.88421 -3.36895,-1.85268 -4.51794,-2.88509 -1.19806,-1.0765 -2.07536,-2.25499 -2.7056,-3.56797 -0.6962,-1.45039 -1.14602,-3.18293 -1.29399,-5.274 -0.17354,-2.45243 0.0805,-5.23989 0.70876,-8.28818 0.84311,-4.09095 2.27135,-8.22036 3.68831,-11.75424 a 6.6706208,6.6706208 90 0 0 -12.3829,-4.96512 c -1.56935,3.91391 -3.30676,8.85748 -4.37204,14.02642 -0.79505,3.85769 -1.23369,7.91508 -0.9501,11.92281 0.24637,3.48164 1.03627,6.90083 2.57455,10.10554 1.4125,2.94268 3.36685,5.51759 5.81622,7.71843 2.29792,2.06476 4.93406,3.71404 7.78305,5.0464 2.74849,1.28536 5.70045,2.27847 8.75138,3.07117 5.9783,1.5533 12.54313,2.38405 18.79253,3.04385 6.89138,0.72758 12.44197,1.17163 18.08423,2.02453 2.88116,0.43552 5.39539,0.92757 7.61516,1.50955 2.44104,0.63998 4.36558,1.34781 5.90051,2.09867 1.78333,0.87238 2.94895,1.75885 3.74169,2.55357 0.59178,0.59326 1.00882,1.16894 1.31647,1.69771 0.24439,0.42005 0.45087,0.86435 0.62193,1.33773 0.49279,1.36372 0.7022,3.00504 0.61766,4.93421 -0.12951,2.95554 -0.92651,5.99426 -1.60966,8.16955 a 6.6706208,6.6706208 90 0 0 12.72832,3.99732 z"
         id="path-1"
         style="fill:#ffffff;fill-rule:nonzero;stroke:none;stroke-width:1px;stroke-linecap:butt;stroke-linejoin:miter;stroke-opacity:1"
         inkscape:original-d="m -177.90256,308.83383 c -2.15144,-5.85106 1.92883,-19.56409 -1.9554,-24.52916 -10.90081,-13.93411 -32.13119,-4.2636 -46.66342,-7.33312 -4.61966,-0.97578 -9.02093,-2.39103 -13.52672,-3.89296 -6.41988,-2.13996 -11.06042,-4.7954 -12.71075,-12.22188 -2.59862,-11.69373 0,-19.76921 0,-30.79912"
         inkscape:path-effect="#path-effect7597;#path-effect7599" />
    </g>
  </g>
</svg>
